<?xml version="1.0" encoding="UTF-8"?>
<svg width="115px" height="107px" viewBox="0 0 115 107" version="1.1" xmlns="http://www.w3.org/2000/svg" xmlns:xlink="http://www.w3.org/1999/xlink">
    <!-- Generator: Sketch 52.2 (67145) - http://www.bohemiancoding.com/sketch -->
    <title>noun_cargo_1823445</title>
    <desc>Created with Sketch.</desc>
    <g id="Page-1" stroke="none" stroke-width="1" fill="none" fill-rule="evenodd">
        <g id="home1" transform="translate(-908.000000, -3009.000000)" fill="#FFFFFF" fill-rule="nonzero">
            <g id="noun_cargo_1823445" transform="translate(908.000000, 3009.000000)">
                <g id="Group">
                    <path d="M46.8925,0.100705882 C46.700125,0.130917647 46.513625,0.197635294 46.345625,0.297447412 L29.314375,9.423918 C29.288125,9.43650624 29.261875,9.44909447 29.236875,9.46294153 L22.479,13.042658 L16.815,16.0717651 C16.80125,16.0843533 16.78875,16.0982004 16.77625,16.1107886 L0.83875,24.6078474 C0.79875,24.6317651 0.76,24.6582004 0.72125,24.6858945 C0.66625,24.7224004 0.615,24.7614239 0.565,24.8042239 C0.5375,24.8294004 0.5125,24.8558356 0.4875,24.8822709 C0.47375,24.8948592 0.46125,24.9087062 0.44875,24.9212945 C0.39125,24.9829768 0.33875,25.0482972 0.2925,25.1179101 C0.292375,25.1304984 0.292375,25.1443454 0.2925,25.1569336 C0.23375,25.2312042 0.18125,25.3097548 0.13625,25.3929631 C0.136125,25.4055513 0.136125,25.4193984 0.13625,25.4319866 C0.06,25.6186701 0.02,25.8201952 0.01875,26.0221105 L0.01875,26.1794634 L0.01875,78.6170164 C0.01875,79.1710246 0.323625,79.7168505 0.8,79.9939175 L45.8775,106.271859 C45.89,106.285706 45.90375,106.298294 45.91625,106.310882 L45.955,106.310882 C46.03,106.357459 46.108125,106.396482 46.189375,106.429212 C46.303125,106.469494 46.42125,106.495929 46.540875,106.507259 C46.579625,106.522365 46.618375,106.534953 46.658375,106.546282 C46.670875,106.546534 46.684625,106.546534 46.697125,106.546282 C46.856125,106.546282 47.014875,106.517329 47.165875,106.468235 C47.192125,106.455647 47.218375,106.443059 47.243375,106.429212 C47.283375,106.416623 47.322125,106.404035 47.360875,106.390188 C47.414625,106.367529 47.465875,106.341094 47.517125,106.312141 L47.673375,106.234094 C47.687125,106.221506 47.699625,106.207659 47.712125,106.19507 L73.219625,91.3258469 C76.474,99.0926622 84.048375,104.602659 92.945875,104.73987 C104.93425,104.924918 114.793375,95.2683564 114.977125,83.1825175 C115.160688,71.0965528 105.598375,61.1027528 93.609625,60.9164469 C93.5569109,60.9267386 93.5047583,60.9397638 93.453375,60.9554705 L93.453375,26.3768469 C93.63995,25.6912916 93.2972625,24.8974775 92.672125,24.5672881 L47.789625,0.295911647 C47.5635,0.169903412 47.305875,0.101536706 47.0475,0.0991575294 L46.89125,0.0991575294 L46.8925,0.100705882 Z M47.04875,3.48379412 L88.72875,26.0242882 L75.2525,33.8525341 L33.26,10.8790047 L47.04875,3.48341647 L47.04875,3.48379412 Z M29.93875,12.6496659 L72.0875,35.7012424 L62.595375,41.2085953 L20.759125,17.5276071 L24.938875,15.3246659 L29.938875,12.6496659 L29.93875,12.6496659 Z M17.47775,19.2977647 C17.49025,19.2978906 17.504,19.2978906 17.5165,19.2977647 L59.509,43.0190353 L46.73525,50.4538988 L4.8215,26.0641929 L17.47775,19.2980165 L17.47775,19.2977647 Z M3.1415,28.7389412 L45.17275,53.2066941 L45.17275,102.222765 L3.1415,77.7147294 L3.1415,28.7389412 Z M90.329,28.7389412 L90.329,61.1146235 C79.822875,62.5486753 71.66775,71.6050294 71.5015,82.5536471 C71.471375,84.5394412 71.737525,86.4620424 72.204625,88.2970294 L48.298375,102.222135 L48.298375,53.2060647 L60.564,46.0465059 L60.75925,54.5435647 C60.788,55.6435247 62.21225,56.4197153 63.142125,55.8417894 L75.915875,48.3281235 C76.3922625,48.0511824 76.7020125,47.505218 76.697125,46.9513482 L76.736125,36.6447306 L90.329875,28.7376824 L90.329,28.7389412 Z M73.61025,38.4948235 L73.57125,46.0871659 L63.805625,51.7911471 L63.649375,44.2776071 L73.610375,38.4948235 L73.61025,38.4948235 Z M93.024,60.9169882 C92.37985,60.9295765 91.73975,60.9723765 91.11,61.0353176 C91.7405,60.9723765 92.37925,60.9232824 93.024,60.9169882 Z M93.102125,64.1034482 C93.1411529,64.1049245 93.1802221,64.1049245 93.21925,64.1034482 C93.2452876,64.1041049 93.2713374,64.1041049 93.297375,64.1034482 C93.3753897,64.1093658 93.4537353,64.1093658 93.53175,64.1034482 C103.832375,64.2624376 112.04925,72.7587412 111.89175,83.1431541 C111.734025,93.5275671 103.247125,101.791366 92.94675,101.632754 C82.646125,101.473765 74.508,92.93806 74.6655,82.5540247 C74.82035,72.3580576 82.988625,64.2091894 93.103,64.1047071 L93.102125,64.1034482 Z M102.281875,75.1181541 C102.216013,75.1269672 102.150777,75.1400015 102.086563,75.1571776 C101.794309,75.2108525 101.523304,75.3473117 101.305313,75.55056 L89.0396875,86.7226188 L85.4459375,82.3954129 C85.1146488,81.891717 84.5262581,81.6234968 83.9318385,81.7052051 C83.3374189,81.7869134 82.8419304,82.2041225 82.6568037,82.7788044 C82.471677,83.3534864 82.6296009,83.9841663 83.0631875,84.4017259 L87.7116875,89.9877553 C87.9838742,90.3097165 88.3732696,90.5078208 88.7921163,90.5374219 C89.210963,90.5670229 89.6240164,90.4256299 89.9381875,90.1451082 L103.375688,77.9108541 C103.906139,77.4785312 104.096673,76.7495656 103.846317,76.1102674 C103.595961,75.4709692 102.962623,75.0692113 102.281938,75.1179024 L102.281875,75.1181541 Z" id="Shape"></path>
                </g>
            </g>
        </g>
    </g>
</svg>