<?xml version="1.0" encoding="UTF-8"?>
<svg width="1920px" height="313px" viewBox="0 0 1920 313" version="1.1" xmlns="http://www.w3.org/2000/svg" xmlns:xlink="http://www.w3.org/1999/xlink">
    <!-- Generator: Sketch 53.2 (72643) - https://sketchapp.com -->
    <title>Group 6</title>
    <desc>Created with Sketch.</desc>
    <g id="Page-1" stroke="none" stroke-width="1" fill="none" fill-rule="evenodd">
        <g id="about" transform="translate(0.000000, -3544.000000)">
            <g id="Group-6" transform="translate(0.000000, 3544.000000)">
                <path d="M0,158.5 L1922,158.5" id="Line-5" stroke="#DEDEDE" stroke-width="2" stroke-linecap="square"></path>
                <text id="1991" font-family="AvenirNextCondensed-Regular, Avenir Next Condensed" font-size="22" font-style="condensed" font-weight="normal" fill="#0E9C83">
                    <tspan x="62" y="122">1991</tspan>
                </text>
                <text id="2008" font-family="AvenirNextCondensed-Regular, Avenir Next Condensed" font-size="22" font-style="condensed" font-weight="normal" fill="#0E9C83">
                    <tspan x="542" y="122">2008</tspan>
                </text>
                <text id="2011" font-family="AvenirNextCondensed-Regular, Avenir Next Condensed" font-size="22" font-style="condensed" font-weight="normal" fill="#0E9C83">
                    <tspan x="1024" y="122">2011</tspan>
                </text>
                <text id="1996" font-family="AvenirNextCondensed-Regular, Avenir Next Condensed" font-size="22" font-style="condensed" font-weight="normal" fill="#FA931B">
                    <tspan x="163" y="214">1996</tspan>
                </text>
                <text id="2010" font-family="AvenirNextCondensed-Regular, Avenir Next Condensed" font-size="22" font-style="condensed" font-weight="normal" fill="#FA931B">
                    <tspan x="647" y="214">2010</tspan>
                </text>
                <text id="2012" font-family="AvenirNextCondensed-Regular, Avenir Next Condensed" font-size="22" font-style="condensed" font-weight="normal" fill="#FA931B">
                    <tspan x="1125" y="214">2012</tspan>
                </text>
                <text id="2001" font-family="AvenirNextCondensed-Regular, Avenir Next Condensed" font-size="22" font-style="condensed" font-weight="normal" fill="#DE3376">
                    <tspan x="267" y="122">2001</tspan>
                </text>
                <text id="2011" font-family="AvenirNextCondensed-Regular, Avenir Next Condensed" font-size="22" font-style="condensed" font-weight="normal" fill="#DE3376">
                    <tspan x="751" y="120">2011</tspan>
                </text>
                <text id="2012" font-family="AvenirNextCondensed-Regular, Avenir Next Condensed" font-size="22" font-style="condensed" font-weight="normal" fill="#DE3376">
                    <tspan x="1233" y="122">2012</tspan>
                </text>
                <text id="2005" font-family="AvenirNextCondensed-Regular, Avenir Next Condensed" font-size="22" font-style="condensed" font-weight="normal" fill="#2D7DBC">
                    <tspan x="373" y="214">2005</tspan>
                </text>
                <text id="2011" font-family="AvenirNextCondensed-Regular, Avenir Next Condensed" font-size="22" font-style="condensed" font-weight="normal" fill="#2D7DBC">
                    <tspan x="849" y="214">2011</tspan>
                </text>
                <text id="2013" font-family="AvenirNextCondensed-Regular, Avenir Next Condensed" font-size="22" font-style="condensed" font-weight="normal" fill="#2D7DBC">
                    <tspan x="1331" y="214">2013</tspan>
                </text>
                <g id="Group-5" transform="translate(53.500000, 135.000000)">
                    <path d="M30.5,23.5 L30.5,114.5" id="Line" stroke="#A9A9A9" stroke-width="2" stroke-linecap="square"></path>
                    <circle id="Oval" fill="#0E9C83" cx="30.5" cy="22" r="7"></circle>
                    <circle id="Oval" fill="#0E9C83" cx="30.5" cy="119" r="4"></circle>
                    <circle id="Oval" stroke="#0BA68E" stroke-width="2" cx="30.5" cy="22" r="14"></circle>
                    <circle id="Oval" stroke="#A9A9A9" stroke-width="2" cx="31" cy="22.5" r="22.5"></circle>
                    <path d="M0,24.5 C0.316939891,32.2241379 3.01092896,38.8218391 8.08196721,44.2931034 C13.1530055,49.7643678 20.1256831,52.5 29,52.5" id="Line-6" stroke="#A9A9A9" stroke-width="2" stroke-linecap="square"></path>
                </g>
                <path d="M135.5,0.5 L240,0.5" id="Line-2" stroke="#FA931B" stroke-linecap="square"></path>
                <path d="M30.5,312.5 L135,312.5" id="Line-2" stroke="#0E9C83" stroke-linecap="square"></path>
                <g id="Group-3" transform="translate(258.500000, 135.000000)">
                    <path d="M30.5,23.5 L30.5,114.5" id="Line" stroke="#979797" stroke-width="2" stroke-linecap="square"></path>
                    <circle id="Oval" fill="#DE3376" cx="30.5" cy="22" r="7"></circle>
                    <circle id="Oval" fill="#DE3376" cx="30.5" cy="119" r="4"></circle>
                    <circle id="Oval" stroke="#DE3376" stroke-width="2" cx="30.5" cy="22" r="14"></circle>
                    <circle id="Oval" stroke="#9F9F9F" stroke-width="2" cx="31" cy="22.5" r="22.5"></circle>
                    <path d="M0,24.5 C0.316939891,32.2241379 3.01092896,38.8218391 8.08196721,44.2931034 C13.1530055,49.7643678 20.1256831,52.5 29,52.5" id="Line-6" stroke="#9F9F9F" stroke-width="2" stroke-linecap="square"></path>
                </g>
                <g id="Group-4" transform="translate(157.500000, 57.000000)">
                    <path d="M30.5,8.5 L30.5,99.5" id="Line" stroke="#A9A9A9" stroke-width="2" stroke-linecap="square" transform="translate(30.500000, 54.000000) scale(1, -1) translate(-30.500000, -54.000000) "></path>
                    <circle id="Oval" fill="#FA931B" transform="translate(30.500000, 101.000000) scale(1, -1) translate(-30.500000, -101.000000) " cx="30.5" cy="101" r="7"></circle>
                    <circle id="Oval" fill="#FA931B" transform="translate(30.500000, 4.000000) scale(1, -1) translate(-30.500000, -4.000000) " cx="30.5" cy="4" r="4"></circle>
                    <circle id="Oval" stroke="#FA931B" stroke-width="2" transform="translate(30.500000, 101.000000) scale(1, -1) translate(-30.500000, -101.000000) " cx="30.5" cy="101" r="14"></circle>
                    <circle id="Oval" stroke="#A9A9A9" stroke-width="2" transform="translate(31.000000, 100.500000) scale(1, -1) translate(-31.000000, -100.500000) " cx="31" cy="100.5" r="22.5"></circle>
                    <path d="M0,71.5 C0.316939891,79.2241379 3.01092896,85.8218391 8.08196721,91.2931034 C13.1530055,96.7643678 20.1256831,99.5 29,99.5" id="Line-6" stroke="#A9A9A9" stroke-width="2" stroke-linecap="square" transform="translate(14.500000, 85.500000) scale(1, -1) translate(-14.500000, -85.500000) "></path>
                </g>
                <g id="Group-3" transform="translate(389.500000, 118.500000) scale(1, -1) translate(-389.500000, -118.500000) translate(362.500000, 57.000000)">
                    <path d="M30.5,23.5 L30.5,114.5" id="Line" stroke="#979797" stroke-width="2" stroke-linecap="square"></path>
                    <circle id="Oval" fill="#2D7DBC" cx="30.5" cy="22" r="7"></circle>
                    <circle id="Oval" fill="#2D7DBC" cx="30.5" cy="119" r="4"></circle>
                    <circle id="Oval" stroke="#2D7DBC" stroke-width="2" cx="30.5" cy="22" r="14"></circle>
                    <circle id="Oval" stroke="#A9A9A9" stroke-width="2" cx="31" cy="22.5" r="22.5"></circle>
                    <path d="M0,23.5 C0.316939891,31.2241379 3.01092896,37.8218391 8.08196721,43.2931034 C13.1530055,48.7643678 20.1256831,51.5 29,51.5" id="Line-6" stroke="#9F9F9F" stroke-width="2" stroke-linecap="square"></path>
                </g>
                <g id="Group-5" transform="translate(533.500000, 135.000000)">
                    <path d="M30.5,23.5 L30.5,114.5" id="Line" stroke="#A9A9A9" stroke-width="2" stroke-linecap="square"></path>
                    <circle id="Oval" fill="#0E9C83" cx="30.5" cy="22" r="7"></circle>
                    <circle id="Oval" fill="#0E9C83" cx="30.5" cy="119" r="4"></circle>
                    <circle id="Oval" stroke="#0BA68E" stroke-width="2" cx="30.5" cy="22" r="14"></circle>
                    <circle id="Oval" stroke="#A9A9A9" stroke-width="2" cx="31" cy="22.5" r="22.5"></circle>
                    <path d="M0,24.5 C0.316939891,32.2241379 3.01092896,38.8218391 8.08196721,44.2931034 C13.1530055,49.7643678 20.1256831,52.5 29,52.5" id="Line-6" stroke="#A9A9A9" stroke-width="2" stroke-linecap="square"></path>
                </g>
                <g id="Group-3" transform="translate(738.500000, 135.000000)">
                    <path d="M30.5,23.5 L30.5,114.5" id="Line" stroke="#979797" stroke-width="2" stroke-linecap="square"></path>
                    <circle id="Oval" fill="#DE3376" cx="30.5" cy="22" r="7"></circle>
                    <circle id="Oval" fill="#DE3376" cx="30.5" cy="119" r="4"></circle>
                    <circle id="Oval" stroke="#DE3376" stroke-width="2" cx="30.5" cy="22" r="14"></circle>
                    <circle id="Oval" stroke="#9F9F9F" stroke-width="2" cx="31" cy="22.5" r="22.5"></circle>
                    <path d="M0,24.5 C0.316939891,32.2241379 3.01092896,38.8218391 8.08196721,44.2931034 C13.1530055,49.7643678 20.1256831,52.5 29,52.5" id="Line-6" stroke="#9F9F9F" stroke-width="2" stroke-linecap="square"></path>
                </g>
                <g id="Group-4" transform="translate(637.500000, 57.000000)">
                    <path d="M30.5,8.5 L30.5,99.5" id="Line" stroke="#A9A9A9" stroke-width="2" stroke-linecap="square" transform="translate(30.500000, 54.000000) scale(1, -1) translate(-30.500000, -54.000000) "></path>
                    <circle id="Oval" fill="#FA931B" transform="translate(30.500000, 101.000000) scale(1, -1) translate(-30.500000, -101.000000) " cx="30.5" cy="101" r="7"></circle>
                    <circle id="Oval" fill="#FA931B" transform="translate(30.500000, 4.000000) scale(1, -1) translate(-30.500000, -4.000000) " cx="30.5" cy="4" r="4"></circle>
                    <circle id="Oval" stroke="#FA931B" stroke-width="2" transform="translate(30.500000, 101.000000) scale(1, -1) translate(-30.500000, -101.000000) " cx="30.5" cy="101" r="14"></circle>
                    <circle id="Oval" stroke="#A9A9A9" stroke-width="2" transform="translate(31.000000, 100.500000) scale(1, -1) translate(-31.000000, -100.500000) " cx="31" cy="100.5" r="22.5"></circle>
                    <path d="M0,71.5 C0.316939891,79.2241379 3.01092896,85.8218391 8.08196721,91.2931034 C13.1530055,96.7643678 20.1256831,99.5 29,99.5" id="Line-6" stroke="#A9A9A9" stroke-width="2" stroke-linecap="square" transform="translate(14.500000, 85.500000) scale(1, -1) translate(-14.500000, -85.500000) "></path>
                </g>
                <g id="Group-3" transform="translate(869.500000, 118.500000) scale(1, -1) translate(-869.500000, -118.500000) translate(842.500000, 57.000000)">
                    <path d="M30.5,23.5 L30.5,114.5" id="Line" stroke="#979797" stroke-width="2" stroke-linecap="square"></path>
                    <circle id="Oval" fill="#2D7DBC" cx="30.5" cy="22" r="7"></circle>
                    <circle id="Oval" fill="#2D7DBC" cx="30.5" cy="119" r="4"></circle>
                    <circle id="Oval" stroke="#2D7DBC" stroke-width="2" cx="30.5" cy="22" r="14"></circle>
                    <circle id="Oval" stroke="#A9A9A9" stroke-width="2" cx="31" cy="22.5" r="22.5"></circle>
                    <path d="M0,23.5 C0.316939891,31.2241379 3.01092896,37.8218391 8.08196721,43.2931034 C13.1530055,48.7643678 20.1256831,51.5 29,51.5" id="Line-6" stroke="#9F9F9F" stroke-width="2" stroke-linecap="square"></path>
                </g>
                <g id="Group-5" transform="translate(1013.500000, 135.000000)">
                    <path d="M30.5,23.5 L30.5,114.5" id="Line" stroke="#A9A9A9" stroke-width="2" stroke-linecap="square"></path>
                    <circle id="Oval" fill="#0E9C83" cx="30.5" cy="22" r="7"></circle>
                    <circle id="Oval" fill="#0E9C83" cx="30.5" cy="119" r="4"></circle>
                    <circle id="Oval" stroke="#0BA68E" stroke-width="2" cx="30.5" cy="22" r="14"></circle>
                    <circle id="Oval" stroke="#A9A9A9" stroke-width="2" cx="31" cy="22.5" r="22.5"></circle>
                    <path d="M0,24.5 C0.316939891,32.2241379 3.01092896,38.8218391 8.08196721,44.2931034 C13.1530055,49.7643678 20.1256831,52.5 29,52.5" id="Line-6" stroke="#A9A9A9" stroke-width="2" stroke-linecap="square"></path>
                </g>
                <g id="Group-3" transform="translate(1218.500000, 135.000000)">
                    <path d="M30.5,23.5 L30.5,114.5" id="Line" stroke="#979797" stroke-width="2" stroke-linecap="square"></path>
                    <circle id="Oval" fill="#DE3376" cx="30.5" cy="22" r="7"></circle>
                    <circle id="Oval" fill="#DE3376" cx="30.5" cy="119" r="4"></circle>
                    <circle id="Oval" stroke="#DE3376" stroke-width="2" cx="30.5" cy="22" r="14"></circle>
                    <circle id="Oval" stroke="#9F9F9F" stroke-width="2" cx="31" cy="22.5" r="22.5"></circle>
                    <path d="M0,24.5 C0.316939891,32.2241379 3.01092896,38.8218391 8.08196721,44.2931034 C13.1530055,49.7643678 20.1256831,52.5 29,52.5" id="Line-6" stroke="#9F9F9F" stroke-width="2" stroke-linecap="square"></path>
                </g>
                <g id="Group-4" transform="translate(1117.500000, 57.000000)">
                    <path d="M30.5,8.5 L30.5,99.5" id="Line" stroke="#A9A9A9" stroke-width="2" stroke-linecap="square" transform="translate(30.500000, 54.000000) scale(1, -1) translate(-30.500000, -54.000000) "></path>
                    <circle id="Oval" fill="#FA931B" transform="translate(30.500000, 101.000000) scale(1, -1) translate(-30.500000, -101.000000) " cx="30.5" cy="101" r="7"></circle>
                    <circle id="Oval" fill="#FA931B" transform="translate(30.500000, 4.000000) scale(1, -1) translate(-30.500000, -4.000000) " cx="30.5" cy="4" r="4"></circle>
                    <circle id="Oval" stroke="#FA931B" stroke-width="2" transform="translate(30.500000, 101.000000) scale(1, -1) translate(-30.500000, -101.000000) " cx="30.5" cy="101" r="14"></circle>
                    <circle id="Oval" stroke="#A9A9A9" stroke-width="2" transform="translate(31.000000, 100.500000) scale(1, -1) translate(-31.000000, -100.500000) " cx="31" cy="100.5" r="22.5"></circle>
                    <path d="M0,71.5 C0.316939891,79.2241379 3.01092896,85.8218391 8.08196721,91.2931034 C13.1530055,96.7643678 20.1256831,99.5 29,99.5" id="Line-6" stroke="#A9A9A9" stroke-width="2" stroke-linecap="square" transform="translate(14.500000, 85.500000) scale(1, -1) translate(-14.500000, -85.500000) "></path>
                </g>
                <g id="Group-3" transform="translate(1349.500000, 118.500000) scale(1, -1) translate(-1349.500000, -118.500000) translate(1322.500000, 57.000000)">
                    <path d="M30.5,23.5 L30.5,114.5" id="Line" stroke="#979797" stroke-width="2" stroke-linecap="square"></path>
                    <circle id="Oval" fill="#2D7DBC" cx="30.5" cy="22" r="7"></circle>
                    <circle id="Oval" fill="#2D7DBC" cx="30.5" cy="119" r="4"></circle>
                    <circle id="Oval" stroke="#2D7DBC" stroke-width="2" cx="30.5" cy="22" r="14"></circle>
                    <circle id="Oval" stroke="#A9A9A9" stroke-width="2" cx="31" cy="22.5" r="22.5"></circle>
                    <path d="M0,23.5 C0.316939891,31.2241379 3.01092896,37.8218391 8.08196721,43.2931034 C13.1530055,48.7643678 20.1256831,51.5 29,51.5" id="Line-6" stroke="#9F9F9F" stroke-width="2" stroke-linecap="square"></path>
                </g>
                <g id="Group-5" transform="translate(1463.500000, 135.000000)">
                    <path d="M30.5,23.5 L30.5,114.5" id="Line" stroke="#A9A9A9" stroke-width="2" stroke-linecap="square"></path>
                    <circle id="Oval" fill="#0E9C83" cx="30.5" cy="22" r="7"></circle>
                    <circle id="Oval" fill="#0E9C83" cx="30.5" cy="119" r="4"></circle>
                    <circle id="Oval" stroke="#0BA68E" stroke-width="2" cx="30.5" cy="22" r="14"></circle>
                    <circle id="Oval" stroke="#A9A9A9" stroke-width="2" cx="31" cy="22.5" r="22.5"></circle>
                    <path d="M0,24.5 C0.316939891,32.2241379 3.01092896,38.8218391 8.08196721,44.2931034 C13.1530055,49.7643678 20.1256831,52.5 29,52.5" id="Line-6" stroke="#A9A9A9" stroke-width="2" stroke-linecap="square"></path>
                </g>
                <g id="Group-3" transform="translate(1668.500000, 135.000000)">
                    <path d="M30.5,23.5 L30.5,114.5" id="Line" stroke="#979797" stroke-width="2" stroke-linecap="square"></path>
                    <circle id="Oval" fill="#DE3376" cx="30.5" cy="22" r="7"></circle>
                    <circle id="Oval" fill="#DE3376" cx="30.5" cy="119" r="4"></circle>
                    <circle id="Oval" stroke="#DE3376" stroke-width="2" cx="30.5" cy="22" r="14"></circle>
                    <circle id="Oval" stroke="#9F9F9F" stroke-width="2" cx="31" cy="22.5" r="22.5"></circle>
                    <path d="M0,24.5 C0.316939891,32.2241379 3.01092896,38.8218391 8.08196721,44.2931034 C13.1530055,49.7643678 20.1256831,52.5 29,52.5" id="Line-6" stroke="#9F9F9F" stroke-width="2" stroke-linecap="square"></path>
                </g>
                <g id="Group-4" transform="translate(1567.500000, 57.000000)">
                    <path d="M30.5,8.5 L30.5,99.5" id="Line" stroke="#A9A9A9" stroke-width="2" stroke-linecap="square" transform="translate(30.500000, 54.000000) scale(1, -1) translate(-30.500000, -54.000000) "></path>
                    <circle id="Oval" fill="#FA931B" transform="translate(30.500000, 101.000000) scale(1, -1) translate(-30.500000, -101.000000) " cx="30.5" cy="101" r="7"></circle>
                    <circle id="Oval" fill="#FA931B" transform="translate(30.500000, 4.000000) scale(1, -1) translate(-30.500000, -4.000000) " cx="30.5" cy="4" r="4"></circle>
                    <circle id="Oval" stroke="#FA931B" stroke-width="2" transform="translate(30.500000, 101.000000) scale(1, -1) translate(-30.500000, -101.000000) " cx="30.5" cy="101" r="14"></circle>
                    <circle id="Oval" stroke="#A9A9A9" stroke-width="2" transform="translate(31.000000, 100.500000) scale(1, -1) translate(-31.000000, -100.500000) " cx="31" cy="100.5" r="22.5"></circle>
                    <path d="M0,71.5 C0.316939891,79.2241379 3.01092896,85.8218391 8.08196721,91.2931034 C13.1530055,96.7643678 20.1256831,99.5 29,99.5" id="Line-6" stroke="#A9A9A9" stroke-width="2" stroke-linecap="square" transform="translate(14.500000, 85.500000) scale(1, -1) translate(-14.500000, -85.500000) "></path>
                </g>
                <g id="Group-3" transform="translate(1799.500000, 118.500000) scale(1, -1) translate(-1799.500000, -118.500000) translate(1772.500000, 57.000000)">
                    <path d="M30.5,23.5 L30.5,114.5" id="Line" stroke="#979797" stroke-width="2" stroke-linecap="square"></path>
                    <circle id="Oval" fill="#2D7DBC" cx="30.5" cy="22" r="7"></circle>
                    <circle id="Oval" fill="#2D7DBC" cx="30.5" cy="119" r="4"></circle>
                    <circle id="Oval" stroke="#2D7DBC" stroke-width="2" cx="30.5" cy="22" r="14"></circle>
                    <circle id="Oval" stroke="#A9A9A9" stroke-width="2" cx="31" cy="22.5" r="22.5"></circle>
                    <path d="M0,23.5 C0.316939891,31.2241379 3.01092896,37.8218391 8.08196721,43.2931034 C13.1530055,48.7643678 20.1256831,51.5 29,51.5" id="Line-6" stroke="#9F9F9F" stroke-width="2" stroke-linecap="square"></path>
                </g>
                <text id="Socep-starts-its-act" font-family="HelveticaNeue, Helvetica Neue" font-size="13" font-weight="normal" fill="#6C6C6C">
                    <tspan x="30" y="287">Socep starts its activity </tspan>
                    <tspan x="30" y="302">in Constanta Port</tspan>
                </text>
                <path d="M224.5,312.5 L329,312.5" id="Line-2" stroke="#DE3376" stroke-linecap="square"></path>
                <text id="Socep-celebrates-10" font-family="HelveticaNeue, Helvetica Neue" font-size="13" font-weight="normal" fill="#6C6C6C">
                    <tspan x="224" y="287">Socep celebrates 10 </tspan>
                    <tspan x="224" y="302">years of activity</tspan>
                </text>
                <path d="M509.5,312.5 L614,312.5" id="Line-2" stroke="#0E9C83" stroke-linecap="square"></path>
                <text id="DD-Group-becomes-the" font-family="HelveticaNeue, Helvetica Neue" font-size="13" font-weight="normal" fill="#6C6C6C">
                    <tspan x="509" y="287">DD Group becomes the </tspan>
                    <tspan x="509" y="302">main shareholder of Socep</tspan>
                </text>
                <path d="M719.5,312.5 L824,312.5" id="Line-2" stroke="#DE3376" stroke-linecap="square"></path>
                <text id="Socep-celebrates-20" font-family="HelveticaNeue, Helvetica Neue" font-size="13" font-weight="normal" fill="#6C6C6C">
                    <tspan x="719" y="287">Socep celebrates 20 years </tspan>
                    <tspan x="719" y="302">of experience</tspan>
                </text>
                <path d="M970.5,312.5 L1075,312.5" id="Line-2" stroke="#0E9C83" stroke-linecap="square"></path>
                <text id="Socep-has-implemente" font-family="HelveticaNeue, Helvetica Neue" font-size="13" font-weight="normal" fill="#6C6C6C">
                    <tspan x="970" y="274">Socep has implemented </tspan>
                    <tspan x="970" y="289">Port Security Regulations </tspan>
                    <tspan x="970" y="304">acording to IMO</tspan>
                </text>
                <path d="M1188.5,312.5 L1293,312.5" id="Line-2" stroke="#DE3376" stroke-linecap="square"></path>
                <text id="The-brand-Socep-Port" font-family="HelveticaNeue, Helvetica Neue" font-size="13" font-weight="normal" fill="#6C6C6C">
                    <tspan x="1188" y="274">The brand Socep Port </tspan>
                    <tspan x="1188" y="289">Operator is registered with </tspan>
                    <tspan x="1188" y="304">the State Office(OSIM)</tspan>
                </text>
                <text id="The-company-was-full" font-family="HelveticaNeue, Helvetica Neue" font-size="13" font-weight="normal" fill="#6C6C6C">
                    <tspan x="136" y="20">The company was fully </tspan>
                    <tspan x="136" y="35">privatized</tspan>
                </text>
                <path d="M347.5,0.5 L452,0.5" id="Line-2" stroke="#2D7DBC" stroke-linecap="square"></path>
                <text id="Socep-is-listed-at-B" font-family="HelveticaNeue, Helvetica Neue" font-size="13" font-weight="normal" fill="#6C6C6C">
                    <tspan x="348" y="20">Socep is listed at </tspan>
                    <tspan x="348" y="35">Bucharest Stock Exchange</tspan>
                </text>
                <path d="M610.5,0.5 L715,0.5" id="Line-2" stroke="#FA931B" stroke-linecap="square"></path>
                <text id="Socep-obtains-the-AJ" font-family="HelveticaNeue, Helvetica Neue" font-size="13" font-weight="normal" fill="#6C6C6C">
                    <tspan x="611" y="20">Socep obtains the AJA </tspan>
                    <tspan x="611" y="35">Registrars / H.A.C.C.P. </tspan>
                    <tspan x="611" y="50">Codex Alimentarius</tspan>
                </text>
                <path d="M824.5,0.5 L929,0.5" id="Line-2" stroke="#2D7DBC" stroke-linecap="square"></path>
                <text id="Socep-buys-a-quay-cr" font-family="HelveticaNeue, Helvetica Neue" font-size="13" font-weight="normal" fill="#6C6C6C">
                    <tspan x="825" y="20">Socep buys a quay crane </tspan>
                    <tspan x="825" y="35">with the capacity of 20 tons</tspan>
                </text>
                <path d="M1075.5,0.5 L1180,0.5" id="Line-2" stroke="#FA931B" stroke-linecap="square"></path>
                <text id="Socep-aquires-two-in" font-family="HelveticaNeue, Helvetica Neue" font-size="13" font-weight="normal" fill="#6C6C6C">
                    <tspan x="1076" y="20">Socep aquires two </tspan>
                    <tspan x="1076" y="35">installations for welding</tspan>
                </text>
                <path d="M1285.5,0.5 L1390,0.5" id="Line-2" stroke="#2D7DBC" stroke-linecap="square"></path>
                <text id="Socep-was-designated" font-family="HelveticaNeue, Helvetica Neue" font-size="13" font-weight="normal" fill="#6C6C6C">
                    <tspan x="1286" y="20">Socep was designated The </tspan>
                    <tspan x="1286" y="35">Best Port Operator</tspan>
                </text>
                <text id="2014" font-family="AvenirNextCondensed-Regular, Avenir Next Condensed" font-size="22" font-style="condensed" font-weight="normal" fill="#0E9C83">
                    <tspan x="1474" y="122">2014</tspan>
                </text>
                <text id="2014" font-family="AvenirNextCondensed-Regular, Avenir Next Condensed" font-size="22" font-style="condensed" font-weight="normal" fill="#FA931B">
                    <tspan x="1575" y="214">2014</tspan>
                </text>
                <text id="2015" font-family="AvenirNextCondensed-Regular, Avenir Next Condensed" font-size="22" font-style="condensed" font-weight="normal" fill="#DE3376">
                    <tspan x="1683" y="122">2015</tspan>
                </text>
                <text id="2015" font-family="AvenirNextCondensed-Regular, Avenir Next Condensed" font-size="22" font-style="condensed" font-weight="normal" fill="#2D7DBC">
                    <tspan x="1781" y="214">2015</tspan>
                </text>
                <path d="M1420.5,312.5 L1525,312.5" id="Line-2" stroke="#A9A9A9" stroke-linecap="square"></path>
                <text id="Socep-purchases-unlo" font-family="HelveticaNeue, Helvetica Neue" font-size="13" font-weight="normal" fill="#6C6C6C">
                    <tspan x="1420" y="274">Socep purchases </tspan>
                    <tspan x="1420" y="289">unloading installation for </tspan>
                    <tspan x="1420" y="304">dry bulk wagons</tspan>
                </text>
                <path d="M1638.5,312.5 L1743,312.5" id="Line-2" stroke="#DE3376" stroke-linecap="square"></path>
                <text id="Socep-launches-a-Gra" font-family="HelveticaNeue, Helvetica Neue" font-size="13" font-weight="normal" fill="#6C6C6C">
                    <tspan x="1638" y="274">Socep launches a Grain </tspan>
                    <tspan x="1638" y="289">Silo Terminal and a new </tspan>
                    <tspan x="1638" y="304">Terminal Operating System</tspan>
                </text>
                <path d="M1525.5,0.5 L1630,0.5" id="Line-2" stroke="#FA931B" stroke-linecap="square"></path>
                <text id="Socep-purchases-6-tr" font-family="HelveticaNeue, Helvetica Neue" font-size="13" font-weight="normal" fill="#6C6C6C">
                    <tspan x="1526" y="20">Socep purchases 6 trailers </tspan>
                    <tspan x="1526" y="35">and 4 trucks</tspan>
                </text>
                <path d="M1735.5,0.5 L1840,0.5" id="Line-2" stroke="#2D7DBC" stroke-linecap="square"></path>
                <text id="Socep-modernizez-its" font-family="HelveticaNeue, Helvetica Neue" font-size="13" font-weight="normal" fill="#6C6C6C">
                    <tspan x="1736" y="20">Socep modernizez its truck </tspan>
                    <tspan x="1736" y="35">weighing machine and its </tspan>
                    <tspan x="1736" y="50">video surveillance systems</tspan>
                </text>
            </g>
        </g>
    </g>
</svg>